HIERARCHY
ROOT Hips
{
	OFFSET 0 0 0
	CHANNELS 6 Xposition Yposition Zposition Xrotation Yrotation Zrotation
	JOINT LeftHandThumb1
	{
		OFFSET 1.78 -1.1 1.54
		CHANNELS 3 Xrotation Yrotation Zrotation
		JOINT LeftHandThumb2
		{
			OFFSET 3.18423 0 0
			CHANNELS 3 Xrotation Yrotation Zrotation
			JOINT LeftHandThumb3
			{
				OFFSET 3.62493 0 0
				CHANNELS 3 Xrotation Yrotation Zrotation
				JOINT LeftHandThumb4
				{
					OFFSET 2.65828 0 0
					CHANNELS 3 Xrotation Yrotation Zrotation
					End Site
					{
						OFFSET -0 0 0
					}
				}
			}
		}
	}
	JOINT LeftHandIndex1
	{
		OFFSET 7.4475 0.841835 3.96155
		CHANNELS 3 Xrotation Yrotation Zrotation
		JOINT LeftHandIndex2
		{
			OFFSET 4.09997 0 0
			CHANNELS 3 Xrotation Yrotation Zrotation
			JOINT LeftHandIndex3
			{
				OFFSET 1.88792 0 0
				CHANNELS 3 Xrotation Yrotation Zrotation
				JOINT LeftHandIndex4
				{
					OFFSET 1.76905 0 0
					CHANNELS 3 Xrotation Yrotation Zrotation
					End Site
					{
						OFFSET -0 0 0
					}
				}
			}
		}
	}
	JOINT LeftHandMiddle1
	{
		OFFSET 8.15202 0.976627 0.886065
		CHANNELS 3 Xrotation Yrotation Zrotation
		JOINT LeftHandMiddle2
		{
			OFFSET 4.6 0 0
			CHANNELS 3 Xrotation Yrotation Zrotation
			JOINT LeftHandMiddle3
			{
				OFFSET 2.00908 0 0
				CHANNELS 3 Xrotation Yrotation Zrotation
				JOINT LeftHandMiddle4
				{
					OFFSET 1.47333 0 0
					CHANNELS 3 Xrotation Yrotation Zrotation
					End Site
					{
						OFFSET -0 0 0
					}
				}
			}
		}
	}
	JOINT LeftHandRing1
	{
		OFFSET 7.18367 0.497501 -1.72915
		CHANNELS 3 Xrotation Yrotation Zrotation
		JOINT LeftHandRing2
		{
			OFFSET 4.36337 0 0
			CHANNELS 3 Xrotation Yrotation Zrotation
			JOINT LeftHandRing3
			{
				OFFSET 2.36208 0 0
				CHANNELS 3 Xrotation Yrotation Zrotation
				JOINT LeftHandRing4
				{
					OFFSET 1.73219 0 0
					CHANNELS 3 Xrotation Yrotation Zrotation
					End Site
					{
						OFFSET -0 0 0
					}
				}
			}
		}
	}
	JOINT LeftHandPinky1
	{
		OFFSET 7.41209 -0.417872 -3.72321
		CHANNELS 3 Xrotation Yrotation Zrotation
		JOINT LeftHandPinky2
		{
			OFFSET 2.81501 0 0
			CHANNELS 3 Xrotation Yrotation Zrotation
			JOINT LeftHandPinky3
			{
				OFFSET 2.01927 0 0
				CHANNELS 3 Xrotation Yrotation Zrotation
				JOINT LeftHandPinky4
				{
					OFFSET 1.19603 0 0
					CHANNELS 3 Xrotation Yrotation Zrotation
					End Site
					{
						OFFSET -0 0 0
					}
				}
			}
		}
	}
}
MOTION
Frames: 24
Frame Time: 0.00833333
0 0.000000 0 0 0 0 0 0 0 0 0 0 0 0 0 0 0 0 0 0 0 0 0 0 0 0 0 0 0 0 0 0 0 0 0 0 0 0 0 0 0 0 0 0 0 0 0 0 0 0 0 0 0 0 0 0 0 0 0 0 0 0 0 0 0 0
24.88331909 23.27032166 19.4625351 -22.77343889 -79.029899 -45.771015 -19.6187225 -34.84123758 -32.63480571 0.00000106 53.6663953 -0.00000209 0 3.72864311 -0.0000001 -0 -0 0 -7.96512002 -13.14571916 1.41306313 -0 0 0.41014262 -0 0 23.4383954 -0 0 0 -6.67510121 -12.07103683 -29.79908917 -0 0 -100.79245571 -0 0 -37.85580382 -0 0 0 -6.41399643 -6.48341194 -44.62806018 -0 0 -79.94591093 -0 0 -19.74757543 -0 0 0 -3.96113882 -2.56024156 -35.45640212 -0 0 -51.43827649 -0 0 -12.27977366 -0 0 0
24.88540649 23.26513214 19.45947571 -23.46137353 -79.01797753 -46.44642641 -19.57220452 -34.80310468 -32.56578646 0.00000105 53.62377776 -0.00000208 0 3.80815177 -0.0000001 0 -0 -0 -7.90542931 -13.089854 1.47341824 -0 0 0.41259459 -0 0 23.44084744 -0 0 0 -6.60548461 -12.00459546 -29.72538621 -0 0 -100.78225879 -0 0 -37.86041752 -0 0 0 -6.34840221 -6.41659807 -44.56719226 -0 0 -79.92968334 -0 0 -19.7455806 -0 0 0 -3.89800675 -2.49138018 -35.39962114 -0 0 -51.42088502 -0 0 -12.26238097 -0 0 0
24.88290405 23.24830017 19.45644073 -24.28522405 -78.94591476 -47.14592831 -19.50790573 -34.77440985 -32.55676336 0.00000105 53.59894096 -0.00000208 0 3.88712273 -0.0000001 -0 0 0 -7.80408876 -13.03664726 1.40968937 -0 0 0.40878743 -0 0 23.4370408 -0 0 0 -6.49369636 -11.94797805 -29.78866258 -0 0 -100.78661477 -0 0 -37.85902757 -0 0 0 -6.22238411 -6.35853673 -44.63132044 -0 0 -79.92952331 -0 0 -19.75150842 -0 0 0 -3.77155638 -2.44244915 -35.45578274 -0 0 -51.41231602 -0 0 -12.25381384 -0 0 0
24.88192444 23.23792419 19.45331116 -24.97097051 -78.90774669 -47.76834742 -19.43536119 -34.75036975 -32.5532468 0.00000105 53.59015294 -0.00000208 0 3.96140438 -0.00000011 0 -0 0 -7.72120923 -12.97646122 1.3845568 -0 0 0.40533103 -0 0 23.4335841 -0 0 0 -6.40149907 -11.88447358 -29.81938779 -0 0 -100.79278539 -0 0 -37.8638411 -0 0 0 -6.12832897 -6.29869135 -44.66968351 -0 0 -79.93320852 -0 0 -19.75309453 -0 0 0 -3.67167753 -2.39175602 -35.48302062 -0 0 -51.4118058 -0 0 -12.25330037 -0 0 0
24.8784256 23.22956696 19.44715729 -25.63300429 -78.84980178 -48.38676711 -19.34948329 -34.73235363 -32.54685818 0.00000105 53.58127633 -0.00000208 0 4.03526398 -0.00000011 0 -0 -0 -7.61481007 -12.9142108 1.35188206 -0 0 0.39086331 -0 0 23.41911536 -0 0 0 -6.29264904 -11.83009845 -29.86633725 -0 0 -100.80355513 -0 0 -37.86962655 -0 0 0 -6.01639826 -6.24982858 -44.72215981 -0 0 -79.93916225 -0 0 -19.75520391 -0 0 0 -3.55201578 -2.35476248 -35.51906502 -0 0 -51.40944437 -0 0 -12.25094063 -0 0 0
24.8733963 23.22452698 19.43972626 -25.90454836 -78.79412223 -48.64743505 -19.26356698 -34.71235769 -32.52915715 0.00000105 53.50333279 -0.00000208 0 4.10965202 -0.00000011 -0 0 -0 -7.55833123 -12.89644588 1.32119888 -0 0 0.37621861 -0 0 23.40447081 -0 0 0 -6.2316691 -11.82493474 -29.90414759 -0 0 -100.81223915 -0 0 -37.87080051 -0 0 0 -5.95888799 -6.25283353 -44.77176771 -0 0 -79.93914739 -0 0 -19.75114629 -0 0 0 -3.47891681 -2.3664027 -35.55172965 -0 0 -51.40368593 -0 0 -12.24518231 -0 0 0
24.87068481 23.22273865 19.43356018 -26.00758082 -78.77345903 -48.76026453 -19.1928232 -34.68340861 -32.49930595 0.00000104 53.40381504 -0.00000207 0 4.1875775 -0.00000011 -0 0 0 -7.54363754 -12.86354392 1.29615862 -0 0 0.35553455 -0 0 23.38378629 -0 0 0 -6.21592568 -11.81402798 -29.94235241 -0 0 -100.82394986 -0 0 -37.87803645 -0 0 0 -5.93829086 -6.24795298 -44.81988705 -0 0 -79.9398164 -0 0 -19.75734811 -0 0 0 -3.45191849 -2.37564355 -35.57692659 -0 0 -51.39860864 -0 0 -12.24010605 -0 0 0
24.86639252 23.21853333 19.42805786 -26.0210293 -78.7359094 -48.77631932 -19.13923692 -34.64512032 -32.49170251 0.00000104 53.36950927 -0.00000206 0 4.17565848 -0.00000011 0 -0 0 -7.52261017 -12.83296136 1.23659422 -0 0 0.32456304 -0 0 23.3528155 -0 0 0 -6.19104439 -11.8236281 -30.00715394 -0 0 -100.83141129 -0 0 -37.87690246 -0 0 0 -5.90494298 -6.26439184 -44.89310381 -0 0 -79.93786711 -0 0 -19.74833788 -0 0 0 -3.41003236 -2.40021139 -35.62950966 -0 0 -51.38988385 -0 0 -12.23137884 -0 0 0
24.86482849 23.22062836 19.42301941 -25.92999748 -78.73545417 -48.76930233 -19.09181026 -34.60434775 -32.46344805 0.00000103 53.31733435 -0.00000206 0 4.157796 -0.00000011 -0 0 -0 -7.53080358 -12.81278923 1.26336841 -0 0 0.30094766 -0 0 23.32920082 -0 0 0 -6.19000544 -11.8306933 -29.98293606 -0 0 -100.83034874 -0 0 -37.87297565 -0 0 0 -5.90508451 -6.27486574 -44.87896073 -0 0 -79.92314281 -0 0 -19.74320059 -0 0 0 -3.39986802 -2.41016727 -35.59636062 -0 0 -51.37502476 -0 0 -12.21652028 -0 0 0
24.864888 23.2223999 19.41797791 -25.91935325 -78.74058095 -48.84039895 -19.03882756 -34.56674951 -32.41788807 0.00000103 53.27719136 -0.00000206 0 4.14771838 -0.00000011 -0 0 -0 -7.53301913 -12.79189982 1.31003462 -0 0 0.2852994 -0 0 23.31355132 -0 0 0 -6.17992388 -11.817602 -29.93500391 -0 0 -100.83416692 -0 0 -37.87904409 -0 0 0 -5.90188066 -6.26701132 -44.85069708 -0 0 -79.90627509 -0 0 -19.73976059 -0 0 0 -3.39130377 -2.40551101 -35.55427826 -0 0 -51.36334581 -0 0 -12.20484345 -0 0 0
24.86533661 23.2203598 19.41326294 -25.91513637 -78.73638119 -48.88737984 -18.98316105 -34.5311188 -32.37197267 0.00000103 53.25182022 -0.00000206 0 4.14132537 -0.00000011 0 -0 -0 -7.52969155 -12.77306208 1.33288414 -0 0 0.26728954 -0 0 23.29554198 -0 0 0 -6.16668121 -11.80889498 -29.91250824 -0 0 -100.83622379 -0 0 -37.87662168 -0 0 0 -5.89170251 -6.26081228 -44.84578259 -0 0 -79.89210788 -0 0 -19.73319159 -0 0 0 -3.37604571 -2.40601348 -35.54157527 -0 0 -51.35504872 -0 0 -12.19654567 -0 0 0
24.86685028 23.2226944 19.40984344 -25.93975077 -78.73450535 -48.99892641 -18.91686662 -34.50248303 -32.30192087 0.00000103 53.24406776 -0.00000206 0 4.12887815 -0.00000011 0 0 -0 -7.51236248 -12.75644405 1.41372865 -0 0 0.2523297 -0 0 23.28058341 -0 0 0 -6.13999366 -11.80003179 -29.82730452 -0 0 -100.83369643 -0 0 -37.87427053 -0 0 0 -5.87173307 -6.2527768 -44.77904891 -0 0 -79.87372724 -0 0 -19.73040958 -0 0 0 -3.3582176 -2.40276426 -35.471523 -0 0 -51.34239823 -0 0 -12.18389356 -0 0 0
24.86676636 23.21956635 19.40571899 -25.95961536 -78.73219558 -49.02682028 -18.86471889 -34.46729943 -32.25481966 0.00000103 53.21754812 -0.00000205 0 4.11346572 -0.00000011 0 -0 0 -7.50549006 -12.73204072 1.42906232 -0 0 0.23457839 -0 0 23.26283094 -0 0 0 -6.12108274 -11.78641216 -29.80768717 -0 0 -100.83283764 -0 0 -37.87559891 -0 0 0 -5.85674586 -6.24377312 -44.77703822 -0 0 -79.85774105 -0 0 -19.72600277 -0 0 0 -3.34422688 -2.40108687 -35.46278547 -0 0 -51.33472121 -0 0 -12.17621852 -0 0 0
24.86794586 23.21422272 19.40243683 -26.00517429 -78.72884621 -49.0831422 -18.81573084 -34.43126976 -32.216353 0.00000103 53.18699647 -0.00000205 0 4.09900841 -0.00000011 0 0 -0 -7.49133898 -12.70538634 1.45375594 -0 0 0.21519426 -0 0 23.24344692 -0 0 0 -6.0969226 -11.77553846 -29.7790063 -0 0 -100.82992198 -0 0 -37.87248637 -0 0 0 -5.83649548 -6.23614561 -44.7638948 -0 0 -79.84081913 -0 0 -19.72367894 -0 0 0 -3.32332591 -2.39572235 -35.44573469 -0 0 -51.32731612 -0 0 -12.1688155 -0 0 0
24.86910095 23.21098938 19.39918518 -25.98856081 -78.73450523 -49.09680419 -18.76862682 -34.39510881 -32.16999863 0.00000102 53.14699403 -0.00000205 0 4.08536204 -0.00000011 -0 0 -0 -7.48992897 -12.68951221 1.50070522 -0 0 0.19605202 -0 0 23.22430502 -0 0 0 -6.08567707 -11.77398818 -29.72501394 -0 0 -100.82751093 -0 0 -37.87276936 -0 0 0 -5.83707845 -6.24031826 -44.72679971 -0 0 -79.82823657 -0 0 -19.71940569 -0 0 0 -3.32488222 -2.39908507 -35.40355052 -0 0 -51.32175915 -0 0 -12.1632562 -0 0 0
24.86934662 23.20515747 19.39544373 -25.97134854 -78.72975178 -49.06844792 -18.73678968 -34.35179904 -32.1402672 0.00000102 53.09420524 -0.00000204 0 4.06627718 -0.00000011 0 0 0 -7.48909087 -12.67473893 1.50291755 -0 0 0.17317814 -0 0 23.20143193 -0 0 0 -6.07773422 -11.77952146 -29.71996629 -0 0 -100.82538583 -0 0 -37.87162346 -0 0 0 -5.83590409 -6.25246422 -44.73312877 -0 0 -79.81352543 -0 0 -19.71595895 -0 0 0 -3.32282178 -2.41045398 -35.40539001 -0 0 -51.31706068 -0 0 -12.15856121 -0 0 0
24.86582947 23.19940186 19.39035339 -25.90059892 -78.69165565 -48.99040487 -18.69921373 -34.3128135 -32.12182558 0.00000102 53.00525662 -0.00000204 0 4.05102777 -0.00000011 0 -0 0 -7.46663519 -12.68178524 1.49836134 -0 0 0.14701714 -0 0 23.17527096 -0 0 0 -6.04957018 -11.81356991 -29.72685288 -0 0 -100.82504652 -0 0 -37.87276936 -0 0 0 -5.81047308 -6.2926783 -44.74291489 -0 0 -79.80612614 -0 0 -19.71919459 -0 0 0 -3.29894152 -2.45183444 -35.40698469 -0 0 -51.31142428 -0 0 -12.15292563 -0 0 0
24.85860291 23.19904175 19.38446198 -26.14064616 -78.59515688 -49.22142584 -18.62711304 -34.29346423 -32.11534279 0.00000101 52.98520957 -0.00000204 0 4.04170325 -0.00000011 -0 0 0 -7.35448698 -12.66093965 1.47760391 -0 0 0.11551146 -0 0 23.14376399 -0 0 0 -5.94002234 -11.83671248 -29.76983962 -0 0 -100.83584076 -0 0 -37.88322038 -0 0 0 -5.70139991 -6.32423632 -44.78959307 -0 0 -79.80981136 -0 0 -19.72448293 -0 0 0 -3.18149388 -2.48399139 -35.43198678 -0 0 -51.31587227 -0 0 -12.15737079 -0 0 0
24.84662018 23.20209503 19.38026886 -26.67876555 -78.41746498 -49.77962367 -18.49782239 -34.30417715 -32.10923203 0.00000102 53.01953056 -0.00000204 0 4.02954753 -0.00000011 -0 0 -0 -7.13767859 -12.66400083 1.48750042 -0 0 0.09766437 -0 0 23.12591785 -0 0 0 -5.73156693 -11.87156705 -29.78188176 -0 0 -100.84215218 -0 0 -37.87988863 -0 0 0 -5.4911505 -6.36182482 -44.80903358 -0 0 -79.8047444 -0 0 -19.71686066 -0 0 0 -2.9616173 -2.5179458 -35.43458133 -0 0 -51.30968908 -0 0 -12.15119032 -0 0 0
24.84280701 23.19942169 19.37106018 -26.86765309 -78.34713121 -49.97065718 -18.39364718 -34.29811271 -32.10604451 0.00000102 52.99203956 -0.00000204 0 4.01740052 -0.00000011 -0 -0 -0 -7.06696575 -12.66807335 1.49227949 -0 0 0.09112875 -0 0 23.11938164 -0 0 0 -5.66792695 -11.88716626 -29.79004099 -0 0 -100.84452913 -0 0 -37.8809427 -0 0 0 -5.4269266 -6.38149446 -44.82613793 -0 0 -79.79088155 -0 0 -19.71063361 -0 0 0 -2.89226567 -2.53655489 -35.43782236 -0 0 -51.30161182 -0 0 -12.14311192 -0 0 0
24.84227448 23.19485321 19.36137238 -26.92251122 -78.3118554 -50.02123183 -18.31298602 -34.27866916 -32.09537578 0.00000101 52.94570499 -0.00000203 0 4.00884726 -0.00000011 -0 0 0 -7.04392655 -12.67145412 1.50024203 -0 0 0.08259438 -0 0 23.11084721 -0 0 0 -5.65465037 -11.89995477 -29.80111233 -0 0 -100.84981738 -0 0 -37.88467734 -0 0 0 -5.41022982 -6.39572632 -44.84614397 -0 0 -79.77803665 -0 0 -19.70884482 -0 0 0 -2.87261881 -2.55207546 -35.4504609 -0 0 -51.29935421 -0 0 -12.14085551 -0 0 0
24.8527359 23.18620758 19.34812164 -26.6233684 -78.35510289 -49.75852507 -18.27545525 -34.23557983 -32.05799633 0.00000101 52.85635301 -0.00000203 0 3.99544948 -0.00000011 0 -0 -0 -7.11604626 -12.68702393 1.55592793 -0 0 0.07264433 -0 0 23.1008969 -0 0 0 -5.73306838 -11.91689026 -29.756353 -0 0 -100.85238847 -0 0 -37.8831459 -0 0 0 -5.49185876 -6.41417391 -44.81237345 -0 0 -79.76494425 -0 0 -19.70646313 -0 0 0 -2.95614983 -2.56846619 -35.41599139 -0 0 -51.29047659 -0 0 -12.13197986 -0 0 0
24.86340942 23.17409058 19.33440552 -26.2062766 -78.39754988 -49.3393268 -18.27018212 -34.17812351 -32.0261647 0.000001 52.74176096 -0.00000202 0 3.98425869 -0.00000011 0 -0 -0 -7.20054861 -12.71260171 1.57913961 -0 0 0.05454106 -0 0 23.08279495 -0 0 0 -5.82093765 -11.94246034 -29.74934602 -0 0 -100.8582539 -0 0 -37.88891519 -0 0 0 -5.58250466 -6.44179523 -44.81672577 -0 0 -79.76166656 -0 0 -19.70591009 -0 0 0 -3.04911579 -2.59658679 -35.4152673 -0 0 -51.28969445 -0 0 -12.13119692 -0 0 0
